<mxfile host="app.diagrams.net" agent="Mozilla/5.0 (X11; Linux x86_64; rv:133.0) Gecko/20100101 Firefox/133.0" version="26.2.10">
  <diagram id="R2lEEEUBdFMjLlhIrx00" name="Page-1">
    <mxGraphModel grid="1" page="1" gridSize="10" guides="1" tooltips="1" connect="1" arrows="1" fold="1" pageScale="1" pageWidth="850" pageHeight="1100" math="0" shadow="0" extFonts="Permanent Marker^https://fonts.googleapis.com/css?family=Permanent+Marker">
      <root>
        <mxCell id="0" />
        <mxCell id="1" parent="0" />
        <mxCell id="dHsLSIBy0gcyRpdJolsN-1" value="Área" style="swimlane;childLayout=stackLayout;horizontal=1;startSize=50;horizontalStack=0;rounded=1;fontSize=14;fontStyle=0;strokeWidth=2;resizeParent=0;resizeLast=1;shadow=0;dashed=0;align=center;arcSize=4;whiteSpace=wrap;html=1;fillColor=#ffe6cc;strokeColor=#d79b00;" vertex="1" parent="1">
          <mxGeometry x="-210" y="530" width="160" height="120" as="geometry" />
        </mxCell>
        <mxCell id="dHsLSIBy0gcyRpdJolsN-2" value="ID&lt;div&gt;Nome&lt;/div&gt;" style="align=left;strokeColor=none;fillColor=none;spacingLeft=4;spacingRight=4;fontSize=12;verticalAlign=top;resizable=0;rotatable=0;part=1;html=1;whiteSpace=wrap;" vertex="1" parent="dHsLSIBy0gcyRpdJolsN-1">
          <mxGeometry y="50" width="160" height="70" as="geometry" />
        </mxCell>
        <mxCell id="dHsLSIBy0gcyRpdJolsN-8" style="rounded=0;orthogonalLoop=1;jettySize=auto;html=1;exitX=0.5;exitY=0;exitDx=0;exitDy=0;entryX=0.25;entryY=1;entryDx=0;entryDy=0;" edge="1" parent="1" source="dHsLSIBy0gcyRpdJolsN-11" target="dHsLSIBy0gcyRpdJolsN-2">
          <mxGeometry relative="1" as="geometry">
            <mxPoint x="-210" y="760" as="sourcePoint" />
          </mxGeometry>
        </mxCell>
        <mxCell id="dHsLSIBy0gcyRpdJolsN-9" style="rounded=0;orthogonalLoop=1;jettySize=auto;html=1;exitX=0.5;exitY=0;exitDx=0;exitDy=0;entryX=0.613;entryY=1.014;entryDx=0;entryDy=0;entryPerimeter=0;" edge="1" parent="1" source="dHsLSIBy0gcyRpdJolsN-13" target="dHsLSIBy0gcyRpdJolsN-2">
          <mxGeometry relative="1" as="geometry">
            <mxPoint x="-10" y="760" as="sourcePoint" />
            <mxPoint x="-107" y="670" as="targetPoint" />
          </mxGeometry>
        </mxCell>
        <mxCell id="dHsLSIBy0gcyRpdJolsN-11" value="País" style="swimlane;childLayout=stackLayout;horizontal=1;startSize=50;horizontalStack=0;rounded=1;fontSize=14;fontStyle=0;strokeWidth=2;resizeParent=0;resizeLast=1;shadow=0;dashed=0;align=center;arcSize=4;whiteSpace=wrap;html=1;fillColor=#fff2cc;strokeColor=#d6b656;" vertex="1" parent="1">
          <mxGeometry x="-370" y="760" width="160" height="120" as="geometry" />
        </mxCell>
        <mxCell id="dHsLSIBy0gcyRpdJolsN-12" value="&lt;div&gt;ID&lt;/div&gt;Código" style="align=left;strokeColor=none;fillColor=none;spacingLeft=4;spacingRight=4;fontSize=12;verticalAlign=top;resizable=0;rotatable=0;part=1;html=1;whiteSpace=wrap;" vertex="1" parent="dHsLSIBy0gcyRpdJolsN-11">
          <mxGeometry y="50" width="160" height="70" as="geometry" />
        </mxCell>
        <mxCell id="dHsLSIBy0gcyRpdJolsN-13" value="Grupo" style="swimlane;childLayout=stackLayout;horizontal=1;startSize=50;horizontalStack=0;rounded=1;fontSize=14;fontStyle=0;strokeWidth=2;resizeParent=0;resizeLast=1;shadow=0;dashed=0;align=center;arcSize=4;whiteSpace=wrap;html=1;fillColor=#fff2cc;strokeColor=#d6b656;" vertex="1" parent="1">
          <mxGeometry x="-50" y="760" width="160" height="120" as="geometry" />
        </mxCell>
        <mxCell id="dHsLSIBy0gcyRpdJolsN-14" value="&lt;div&gt;ID&lt;/div&gt;&lt;div&gt;Nome&lt;/div&gt;&lt;div&gt;Código&lt;br&gt;&lt;/div&gt;" style="align=left;strokeColor=none;fillColor=none;spacingLeft=4;spacingRight=4;fontSize=12;verticalAlign=top;resizable=0;rotatable=0;part=1;html=1;whiteSpace=wrap;" vertex="1" parent="dHsLSIBy0gcyRpdJolsN-13">
          <mxGeometry y="50" width="160" height="70" as="geometry" />
        </mxCell>
        <mxCell id="dHsLSIBy0gcyRpdJolsN-17" value="" style="edgeStyle=entityRelationEdgeStyle;fontSize=12;html=1;endArrow=ERoneToMany;startArrow=ERzeroToMany;rounded=0;entryX=0;entryY=0.25;entryDx=0;entryDy=0;exitX=1;exitY=0.25;exitDx=0;exitDy=0;" edge="1" parent="1" source="dHsLSIBy0gcyRpdJolsN-12" target="dHsLSIBy0gcyRpdJolsN-14">
          <mxGeometry width="100" height="100" relative="1" as="geometry">
            <mxPoint x="-150" y="820" as="sourcePoint" />
            <mxPoint x="-90" y="827.5" as="targetPoint" />
          </mxGeometry>
        </mxCell>
        <mxCell id="CxpBcm6kjpZ90KuHwvTz-2" value="Países no grupo" style="edgeLabel;html=1;align=center;verticalAlign=middle;resizable=0;points=[];" connectable="0" vertex="1" parent="dHsLSIBy0gcyRpdJolsN-17">
          <mxGeometry x="0.0375" y="2" relative="1" as="geometry">
            <mxPoint y="-8" as="offset" />
          </mxGeometry>
        </mxCell>
        <mxCell id="dHsLSIBy0gcyRpdJolsN-20" value="Ano" style="swimlane;childLayout=stackLayout;horizontal=1;startSize=50;horizontalStack=0;rounded=1;fontSize=14;fontStyle=0;strokeWidth=2;resizeParent=0;resizeLast=1;shadow=0;dashed=0;align=center;arcSize=4;whiteSpace=wrap;html=1;fillColor=#e1d5e7;strokeColor=#9673a6;" vertex="1" parent="1">
          <mxGeometry x="570" y="260" width="160" height="120" as="geometry" />
        </mxCell>
        <mxCell id="dHsLSIBy0gcyRpdJolsN-21" value="ID&lt;div&gt;Número&lt;/div&gt;" style="align=left;strokeColor=none;fillColor=none;spacingLeft=4;spacingRight=4;fontSize=12;verticalAlign=top;resizable=0;rotatable=0;part=1;html=1;whiteSpace=wrap;" vertex="1" parent="dHsLSIBy0gcyRpdJolsN-20">
          <mxGeometry y="50" width="160" height="70" as="geometry" />
        </mxCell>
        <mxCell id="dHsLSIBy0gcyRpdJolsN-22" value="Mês" style="swimlane;childLayout=stackLayout;horizontal=1;startSize=50;horizontalStack=0;rounded=1;fontSize=14;fontStyle=0;strokeWidth=2;resizeParent=0;resizeLast=1;shadow=0;dashed=0;align=center;arcSize=4;whiteSpace=wrap;html=1;fillColor=#e1d5e7;strokeColor=#9673a6;" vertex="1" parent="1">
          <mxGeometry x="300" y="260" width="160" height="120" as="geometry" />
        </mxCell>
        <mxCell id="dHsLSIBy0gcyRpdJolsN-23" value="ID&lt;div&gt;Número&lt;/div&gt;" style="align=left;strokeColor=none;fillColor=none;spacingLeft=4;spacingRight=4;fontSize=12;verticalAlign=top;resizable=0;rotatable=0;part=1;html=1;whiteSpace=wrap;" vertex="1" parent="dHsLSIBy0gcyRpdJolsN-22">
          <mxGeometry y="50" width="160" height="70" as="geometry" />
        </mxCell>
        <mxCell id="dHsLSIBy0gcyRpdJolsN-24" value="" style="edgeStyle=elbowEdgeStyle;fontSize=12;html=1;endArrow=ERoneToMany;startArrow=ERzeroToOne;rounded=0;exitX=0.25;exitY=1;exitDx=0;exitDy=0;entryX=0.75;entryY=0;entryDx=0;entryDy=0;elbow=vertical;" edge="1" parent="1" source="dHsLSIBy0gcyRpdJolsN-20" target="E-Ihyj0P0JmXrVkSre-L-1">
          <mxGeometry width="100" height="100" relative="1" as="geometry">
            <mxPoint x="20" y="590" as="sourcePoint" />
            <mxPoint x="150" y="540" as="targetPoint" />
            <Array as="points">
              <mxPoint x="550" y="440" />
            </Array>
          </mxGeometry>
        </mxCell>
        <mxCell id="CxpBcm6kjpZ90KuHwvTz-11" value="Ano da mudança" style="edgeLabel;html=1;align=center;verticalAlign=middle;resizable=0;points=[];" connectable="0" vertex="1" parent="dHsLSIBy0gcyRpdJolsN-24">
          <mxGeometry x="-0.3562" y="3" relative="1" as="geometry">
            <mxPoint x="-47" y="-12" as="offset" />
          </mxGeometry>
        </mxCell>
        <mxCell id="dHsLSIBy0gcyRpdJolsN-25" value="" style="edgeStyle=elbowEdgeStyle;fontSize=12;html=1;endArrow=ERoneToMany;startArrow=ERzeroToOne;rounded=0;exitX=0.5;exitY=1;exitDx=0;exitDy=0;entryX=0.5;entryY=0;entryDx=0;entryDy=0;elbow=vertical;" edge="1" parent="1" source="dHsLSIBy0gcyRpdJolsN-22" target="E-Ihyj0P0JmXrVkSre-L-1">
          <mxGeometry width="100" height="100" relative="1" as="geometry">
            <mxPoint x="200" y="450" as="sourcePoint" />
            <mxPoint x="230" y="540" as="targetPoint" />
            <Array as="points">
              <mxPoint x="340" y="470" />
            </Array>
          </mxGeometry>
        </mxCell>
        <mxCell id="CxpBcm6kjpZ90KuHwvTz-10" value="Mês da mudança" style="edgeLabel;html=1;align=center;verticalAlign=middle;resizable=0;points=[];" connectable="0" vertex="1" parent="dHsLSIBy0gcyRpdJolsN-25">
          <mxGeometry x="0.0615" y="4" relative="1" as="geometry">
            <mxPoint x="-4" y="-29" as="offset" />
          </mxGeometry>
        </mxCell>
        <mxCell id="dHsLSIBy0gcyRpdJolsN-26" value="&quot;Herança&quot;" style="text;html=1;align=center;verticalAlign=middle;whiteSpace=wrap;rounded=0;" vertex="1" parent="1">
          <mxGeometry x="-170" y="660" width="60" height="30" as="geometry" />
        </mxCell>
        <mxCell id="dHsLSIBy0gcyRpdJolsN-29" value="" style="edgeStyle=elbowEdgeStyle;fontSize=12;html=1;endArrow=ERzeroToMany;startArrow=ERzeroToOne;rounded=0;exitX=0;exitY=0.25;exitDx=0;exitDy=0;entryX=1;entryY=0.25;entryDx=0;entryDy=0;elbow=vertical;" edge="1" parent="1" source="dHsLSIBy0gcyRpdJolsN-21" target="dHsLSIBy0gcyRpdJolsN-23">
          <mxGeometry width="100" height="100" relative="1" as="geometry">
            <mxPoint x="180" y="260" as="sourcePoint" />
            <mxPoint x="280" y="160" as="targetPoint" />
          </mxGeometry>
        </mxCell>
        <mxCell id="CxpBcm6kjpZ90KuHwvTz-12" value="Ano do mês" style="edgeLabel;html=1;align=center;verticalAlign=middle;resizable=0;points=[];" connectable="0" vertex="1" parent="dHsLSIBy0gcyRpdJolsN-29">
          <mxGeometry x="0.3964" y="-1" relative="1" as="geometry">
            <mxPoint x="24" y="-8" as="offset" />
          </mxGeometry>
        </mxCell>
        <mxCell id="E-Ihyj0P0JmXrVkSre-L-1" value="Mudança de Temperatura" style="swimlane;childLayout=stackLayout;horizontal=1;startSize=50;horizontalStack=0;rounded=1;fontSize=14;fontStyle=0;strokeWidth=2;resizeParent=0;resizeLast=1;shadow=0;dashed=0;align=center;arcSize=4;whiteSpace=wrap;html=1;fillColor=#dae8fc;strokeColor=#6c8ebf;" vertex="1" parent="1">
          <mxGeometry x="300" y="510" width="160" height="120" as="geometry" />
        </mxCell>
        <mxCell id="E-Ihyj0P0JmXrVkSre-L-2" value="&lt;div&gt;ID&lt;/div&gt;&lt;div&gt;Valor Mudança&lt;br&gt;&lt;/div&gt;&lt;div&gt;Desvio Padrão&lt;br&gt;&lt;/div&gt;" style="align=left;strokeColor=none;fillColor=none;spacingLeft=4;spacingRight=4;fontSize=12;verticalAlign=top;resizable=0;rotatable=0;part=1;html=1;whiteSpace=wrap;" vertex="1" parent="E-Ihyj0P0JmXrVkSre-L-1">
          <mxGeometry y="50" width="160" height="70" as="geometry" />
        </mxCell>
        <mxCell id="E-Ihyj0P0JmXrVkSre-L-4" value="Tipo de energia renovável" style="swimlane;childLayout=stackLayout;horizontal=1;startSize=50;horizontalStack=0;rounded=1;fontSize=14;fontStyle=0;strokeWidth=2;resizeParent=0;resizeLast=1;shadow=0;dashed=0;align=center;arcSize=4;whiteSpace=wrap;html=1;fillColor=#d5e8d4;strokeColor=#82b366;" vertex="1" parent="1">
          <mxGeometry x="300" y="880" width="160" height="120" as="geometry" />
        </mxCell>
        <mxCell id="E-Ihyj0P0JmXrVkSre-L-5" value="&lt;div&gt;ID&lt;/div&gt;&lt;div&gt;Valor&lt;br&gt;&lt;/div&gt;" style="align=left;strokeColor=none;fillColor=none;spacingLeft=4;spacingRight=4;fontSize=12;verticalAlign=top;resizable=0;rotatable=0;part=1;html=1;whiteSpace=wrap;" vertex="1" parent="E-Ihyj0P0JmXrVkSre-L-4">
          <mxGeometry y="50" width="160" height="70" as="geometry" />
        </mxCell>
        <mxCell id="E-Ihyj0P0JmXrVkSre-L-7" value="Geração Energia" style="swimlane;childLayout=stackLayout;horizontal=1;startSize=50;horizontalStack=0;rounded=1;fontSize=14;fontStyle=0;strokeWidth=2;resizeParent=0;resizeLast=1;shadow=0;dashed=0;align=center;arcSize=4;whiteSpace=wrap;html=1;fillColor=#dae8fc;strokeColor=#6c8ebf;" vertex="1" parent="1">
          <mxGeometry x="300" y="675" width="160" height="120" as="geometry" />
        </mxCell>
        <mxCell id="E-Ihyj0P0JmXrVkSre-L-8" value="&lt;div&gt;ID&lt;/div&gt;&lt;div&gt;Valor&lt;br&gt;&lt;/div&gt;" style="align=left;strokeColor=none;fillColor=none;spacingLeft=4;spacingRight=4;fontSize=12;verticalAlign=top;resizable=0;rotatable=0;part=1;html=1;whiteSpace=wrap;" vertex="1" parent="E-Ihyj0P0JmXrVkSre-L-7">
          <mxGeometry y="50" width="160" height="70" as="geometry" />
        </mxCell>
        <mxCell id="E-Ihyj0P0JmXrVkSre-L-9" value="" style="edgeStyle=elbowEdgeStyle;fontSize=12;html=1;endArrow=ERoneToMany;startArrow=ERzeroToOne;rounded=0;exitX=0.5;exitY=0;exitDx=0;exitDy=0;entryX=0.5;entryY=1;entryDx=0;entryDy=0;elbow=vertical;" edge="1" parent="1" source="E-Ihyj0P0JmXrVkSre-L-4" target="E-Ihyj0P0JmXrVkSre-L-8">
          <mxGeometry width="100" height="100" relative="1" as="geometry">
            <mxPoint x="200" y="755" as="sourcePoint" />
            <mxPoint x="300" y="655" as="targetPoint" />
          </mxGeometry>
        </mxCell>
        <mxCell id="CxpBcm6kjpZ90KuHwvTz-9" value="Tipo da geração" style="edgeLabel;html=1;align=center;verticalAlign=middle;resizable=0;points=[];" connectable="0" vertex="1" parent="E-Ihyj0P0JmXrVkSre-L-9">
          <mxGeometry x="0.2706" y="-3" relative="1" as="geometry">
            <mxPoint x="-1" y="11" as="offset" />
          </mxGeometry>
        </mxCell>
        <mxCell id="CxpBcm6kjpZ90KuHwvTz-3" value="" style="edgeStyle=entityRelationEdgeStyle;fontSize=12;html=1;endArrow=ERoneToMany;startArrow=ERzeroToOne;rounded=0;exitX=1;exitY=0.25;exitDx=0;exitDy=0;entryX=0;entryY=0;entryDx=0;entryDy=0;" edge="1" parent="1" source="dHsLSIBy0gcyRpdJolsN-1" target="E-Ihyj0P0JmXrVkSre-L-2">
          <mxGeometry width="100" height="100" relative="1" as="geometry">
            <mxPoint x="-40" y="640" as="sourcePoint" />
            <mxPoint x="60" y="540" as="targetPoint" />
          </mxGeometry>
        </mxCell>
        <mxCell id="CxpBcm6kjpZ90KuHwvTz-4" value="Mudanças na área" style="edgeLabel;html=1;align=center;verticalAlign=middle;resizable=0;points=[];" connectable="0" vertex="1" parent="CxpBcm6kjpZ90KuHwvTz-3">
          <mxGeometry x="0.0057" y="-1" relative="1" as="geometry">
            <mxPoint x="14" y="-11" as="offset" />
          </mxGeometry>
        </mxCell>
        <mxCell id="CxpBcm6kjpZ90KuHwvTz-5" value="" style="edgeStyle=elbowEdgeStyle;fontSize=12;html=1;endArrow=ERoneToMany;startArrow=ERzeroToOne;rounded=0;exitX=1;exitY=0.5;exitDx=0;exitDy=0;entryX=0;entryY=0;entryDx=0;entryDy=0;" edge="1" parent="1" source="dHsLSIBy0gcyRpdJolsN-2" target="E-Ihyj0P0JmXrVkSre-L-8">
          <mxGeometry width="100" height="100" relative="1" as="geometry">
            <mxPoint x="-40" y="610" as="sourcePoint" />
            <mxPoint x="310" y="610" as="targetPoint" />
            <Array as="points">
              <mxPoint x="260" y="670" />
            </Array>
          </mxGeometry>
        </mxCell>
        <mxCell id="CxpBcm6kjpZ90KuHwvTz-8" value="Gerações da área" style="edgeLabel;html=1;align=center;verticalAlign=middle;resizable=0;points=[];" connectable="0" vertex="1" parent="CxpBcm6kjpZ90KuHwvTz-5">
          <mxGeometry x="-0.3043" relative="1" as="geometry">
            <mxPoint y="-8" as="offset" />
          </mxGeometry>
        </mxCell>
        <mxCell id="CxpBcm6kjpZ90KuHwvTz-13" value="" style="edgeStyle=elbowEdgeStyle;fontSize=12;html=1;endArrow=ERoneToMany;startArrow=ERzeroToOne;rounded=0;exitX=0.5;exitY=1;exitDx=0;exitDy=0;entryX=1;entryY=0.25;entryDx=0;entryDy=0;" edge="1" parent="1" source="dHsLSIBy0gcyRpdJolsN-21" target="E-Ihyj0P0JmXrVkSre-L-8">
          <mxGeometry width="100" height="100" relative="1" as="geometry">
            <mxPoint x="710" y="550" as="sourcePoint" />
            <mxPoint x="520" y="680" as="targetPoint" />
            <Array as="points">
              <mxPoint x="650" y="580" />
            </Array>
          </mxGeometry>
        </mxCell>
        <mxCell id="CxpBcm6kjpZ90KuHwvTz-17" value="Ano com geração" style="edgeLabel;html=1;align=center;verticalAlign=middle;resizable=0;points=[];" connectable="0" vertex="1" parent="CxpBcm6kjpZ90KuHwvTz-13">
          <mxGeometry x="-0.4136" y="3" relative="1" as="geometry">
            <mxPoint y="133" as="offset" />
          </mxGeometry>
        </mxCell>
      </root>
    </mxGraphModel>
  </diagram>
</mxfile>
